<svg width="22" height="29" viewBox="0 0 22 29" fill="none" xmlns="http://www.w3.org/2000/svg">
<path d="M21.0896 5.28163V1.69966C21.0859 1.53893 21.0406 1.38189 20.9581 1.24388C20.8757 1.10587 20.7588 0.991603 20.619 0.912233C20.4792 0.832863 20.3212 0.791104 20.1604 0.791031C19.9996 0.790957 19.8416 0.832573 19.7017 0.911815L18.6436 1.54851L17.5855 0.911815C17.4426 0.826902 17.2793 0.782468 17.113 0.783275C16.9468 0.784082 16.7839 0.830099 16.6419 0.916396L15.5884 1.54851L14.5303 0.916396C14.3881 0.829867 14.2249 0.784099 14.0585 0.784099C13.892 0.784099 13.7288 0.829867 13.5867 0.916396L12.5332 1.54851L11.4796 0.916396C11.3375 0.829867 11.1743 0.784099 11.0078 0.784099C10.8414 0.784099 10.6782 0.829867 10.536 0.916396L9.48253 1.54851L8.42443 0.916396C8.28195 0.830792 8.11886 0.785567 7.95264 0.785567C7.78642 0.785567 7.62333 0.830792 7.48085 0.916396L6.42733 1.54851L5.37381 0.916396C5.23165 0.829867 5.06844 0.784099 4.90202 0.784099C4.7356 0.784099 4.57238 0.829867 4.43022 0.916396L3.3767 1.54851L2.32319 0.916396C2.18387 0.835765 2.02592 0.792893 1.86496 0.79202C1.70399 0.791146 1.54559 0.8323 1.40541 0.911413C1.26522 0.990527 1.14812 1.10486 1.06566 1.24311C0.983214 1.38135 0.938275 1.53872 0.93529 1.69966V5.28163C-0.27856 11.3842 -0.27856 17.666 0.93529 23.7686V27.3505C0.938958 27.5113 0.984239 27.6683 1.06672 27.8063C1.14919 27.9443 1.26604 28.0586 1.40586 28.138C1.54568 28.2174 1.70369 28.2591 1.86447 28.2592C2.02525 28.2593 2.18329 28.2176 2.32319 28.1384L3.38129 27.5017L4.43938 28.1384C4.58228 28.2233 4.74559 28.2677 4.91181 28.2669C5.07803 28.2661 5.2409 28.2201 5.38297 28.1338L6.43649 27.5017L7.49459 28.1338C7.63674 28.2203 7.79996 28.2661 7.96638 28.2661C8.1328 28.2661 8.29602 28.2203 8.43817 28.1338L9.49169 27.5017L10.5452 28.1338C10.6874 28.2203 10.8506 28.2661 11.017 28.2661C11.1834 28.2661 11.3466 28.2203 11.4888 28.1338L12.5423 27.5017L13.6004 28.1338C13.7429 28.2194 13.906 28.2646 14.0722 28.2646C14.2384 28.2646 14.4015 28.2194 14.544 28.1338L15.5975 27.5017L16.651 28.1338C16.7932 28.2203 16.9564 28.2661 17.1228 28.2661C17.2893 28.2661 17.4525 28.2203 17.5946 28.1338L18.6481 27.5017L19.7017 28.1338C19.8411 28.2139 19.9989 28.2563 20.1597 28.2569C20.3204 28.2575 20.4786 28.2163 20.6186 28.1373C20.7586 28.0583 20.8756 27.9442 20.9582 27.8062C21.0408 27.6683 21.086 27.5113 21.0896 27.3505V23.7686C22.3034 17.666 22.3034 11.3842 21.0896 5.28163ZM2.7675 3.31659L2.90491 3.39903C3.04707 3.48556 3.21028 3.53133 3.3767 3.53133C3.54313 3.53133 3.70634 3.48556 3.8485 3.39903L4.90202 2.76692L5.95553 3.39903C6.09769 3.48556 6.26091 3.53133 6.42733 3.53133C6.59375 3.53133 6.75696 3.48556 6.89912 3.39903L7.95264 2.76692L9.01074 3.39903C9.15322 3.48464 9.31631 3.52986 9.48253 3.52986C9.64875 3.52986 9.81184 3.48464 9.95433 3.39903L11.0078 2.76692L12.0614 3.39903C12.2035 3.48556 12.3667 3.53133 12.5332 3.53133C12.6996 3.53133 12.8628 3.48556 13.0049 3.39903L14.0585 2.76692L15.1166 3.39903C15.2587 3.48577 15.4219 3.53173 15.5884 3.53187C15.7547 3.53052 15.9176 3.48465 16.0602 3.39903L17.1137 2.76692L18.1718 3.40362C18.3151 3.48688 18.4778 3.53074 18.6436 3.53074C18.8093 3.53074 18.9721 3.48688 19.1154 3.40362L19.2574 3.31659V4.44797H2.7675V3.31659ZM19.2574 25.7336L19.1199 25.6512C18.9778 25.5647 18.8146 25.5189 18.6481 25.5189C18.4817 25.5189 18.3185 25.5647 18.1763 25.6512L17.1228 26.2833L16.0693 25.6512C15.9272 25.5647 15.7639 25.5189 15.5975 25.5189C15.4311 25.5189 15.2679 25.5647 15.1257 25.6512L14.0722 26.2833L13.0141 25.6512C12.8716 25.5656 12.7085 25.5203 12.5423 25.5203C12.3761 25.5203 12.213 25.5656 12.0705 25.6512L11.017 26.2833L9.96349 25.6512C9.82133 25.5647 9.65811 25.5189 9.49169 25.5189C9.32527 25.5189 9.16206 25.5647 9.0199 25.6512L7.96638 26.2833L6.90828 25.6512C6.7658 25.5656 6.60271 25.5203 6.43649 25.5203C6.27027 25.5203 6.10718 25.5656 5.9647 25.6512L4.91118 26.2833L3.85308 25.6466C3.70979 25.5633 3.54701 25.5195 3.38129 25.5195C3.21556 25.5195 3.05278 25.5633 2.90949 25.6466L2.7675 25.7336V24.6022H19.2574V25.7336ZM19.4177 22.77H2.60718C1.60404 17.3192 1.60404 11.731 2.60718 6.28018H19.4177C20.4208 11.731 20.4208 17.3192 19.4177 22.77Z" fill="#FFB577"/>
</svg>
