<svg width="96" height="24" viewBox="0 0 96 24" fill="none" xmlns="http://www.w3.org/2000/svg">
<path d="M93.0298 3.17231V8.58228H94.9232V11.1981H93.0298V16.073C93.0298 16.5486 93.1478 16.9053 93.3847 17.1431C93.6211 17.3809 93.9765 17.4998 94.4498 17.4998C94.6863 17.4998 95.8105 17.4998 95.8105 17.4998V20.5912C95.8105 20.5912 93.7396 20.5912 93.4437 20.5912C92.497 20.5912 91.3138 20.4129 90.4851 19.64C89.6568 18.8671 89.3019 17.8565 89.3019 16.4297V11.1386H87.5859V8.52282H89.3019V3.17231H93.0298ZM81.9646 20.829C80.2486 20.829 78.7691 20.2345 77.7634 19.1644C76.6982 18.0943 76.2248 16.6675 76.2248 15.0029V14.5868C76.2248 12.7438 76.6982 11.2575 77.6449 10.0685C78.5916 8.93899 79.9527 8.34449 81.7277 8.34449C83.3257 8.34449 84.6273 8.82008 85.515 9.77129C86.4617 10.7819 86.8757 12.0899 86.8757 13.7545V15.7163H80.0712V15.7757C80.1302 16.4297 80.4261 16.8459 80.8404 17.262C81.2543 17.6782 81.8461 17.8565 82.497 17.8565C83.2072 17.8565 83.7396 17.797 84.1539 17.6782C84.5679 17.5592 85.1597 17.3809 85.7515 17.0837L86.6392 19.4022C86.1064 19.8184 85.4556 20.1156 84.6273 20.4129C83.799 20.7101 82.8523 20.829 81.9646 20.829ZM81.6687 11.1981C81.1363 11.1981 80.722 11.3764 80.4851 11.7926C80.2486 12.2087 80.0711 12.7438 80.0117 13.3383L80.0712 13.3977H83.2662V13.1005C83.2662 12.4465 83.1478 12.0304 82.9113 11.7331C82.5564 11.317 82.2011 11.1981 81.6687 11.1981ZM69.4793 20.829C67.7634 20.829 66.2839 20.2345 65.2781 19.1644C64.2724 18.0943 63.7396 16.6675 63.7396 15.0029V14.5868C63.7396 12.7438 64.213 11.2575 65.1597 10.0685C66.1064 8.93899 67.4675 8.34449 69.2425 8.34449C70.8404 8.34449 72.1421 8.82008 73.0298 9.77129C73.9171 10.7225 74.3904 12.0899 74.3904 13.7545V15.7163H67.5859V15.7757C67.6449 16.4297 67.9408 16.8459 68.3552 17.262C68.7691 17.6782 69.3609 17.8565 70.0117 17.8565C70.722 17.8565 71.2543 17.797 71.6687 17.6782C72.083 17.5592 72.6744 17.3809 73.2662 17.0837L74.1539 19.4022C73.6211 19.8184 72.9703 20.1156 72.1421 20.4129C71.3728 20.7101 70.4261 20.829 69.4793 20.829ZM69.2425 11.1981C68.7101 11.1981 68.2957 11.3764 68.0593 11.7926C67.8224 12.2087 67.6449 12.7438 67.5859 13.3383L67.6449 13.3977H70.8404V13.1005C70.8404 12.4465 70.722 12.0304 70.4851 11.7331C70.1302 11.317 69.7752 11.1981 69.2425 11.1981ZM58.1777 15.4785L59.4793 8.4634H62.8519L60.1302 20.5317H56.9941L55.0416 14.1112H54.9822L53.0298 20.5317H49.8937L47.1125 8.52282H50.5445L51.8461 15.5974H51.9052L53.799 8.52282H56.1658L58.1777 15.4785ZM42.497 17.1431C42.497 16.8458 42.3195 16.5486 41.9646 16.3108C41.6097 16.073 41.0179 15.8352 40.1302 15.6569C38.7693 15.3596 37.7041 14.9435 36.9941 14.4084C36.2841 13.8139 35.929 13.041 35.929 12.0304C35.929 10.9603 36.4024 10.0685 37.2308 9.29571C38.1184 8.52282 39.3019 8.22557 40.781 8.22557C42.3195 8.22557 43.6211 8.58228 44.5089 9.29571C45.4556 10.0091 45.8699 10.9008 45.8105 12.0898V12.1493H42.2605C42.2605 11.6737 42.142 11.317 41.9052 11.0792C41.6687 10.8414 41.2543 10.7225 40.781 10.7225C40.367 10.7225 40.0711 10.8414 39.7752 11.0792C39.4793 11.317 39.3609 11.5548 39.3609 11.9115C39.3609 12.2682 39.5384 12.506 39.8343 12.7438C40.1302 12.9816 40.781 13.16 41.6687 13.3383C43.0888 13.6355 44.2129 14.0517 44.8638 14.5868C45.574 15.1813 45.9289 15.9541 45.9289 17.0242C45.9289 18.0943 45.4556 18.9861 44.5089 19.6994C43.5621 20.4129 42.3195 20.7695 40.781 20.7695C39.1834 20.7695 37.8817 20.3534 36.9349 19.5211C35.9882 18.6888 35.574 17.797 35.6332 16.7269V16.6675H39.006C39.006 17.262 39.1834 17.6782 39.5384 17.8565C39.8937 18.0348 40.367 18.2727 40.8994 18.2727C41.4318 18.2727 41.7871 18.1538 42.0236 17.9754C42.3785 17.797 42.497 17.4998 42.497 17.1431ZM26.4024 8.4634L26.5207 10.128C26.9349 9.5335 27.4083 9.05791 27.9409 8.76066C28.5326 8.40395 29.1243 8.22557 29.8343 8.22557C30.9586 8.22557 31.9053 8.64174 32.5562 9.35517C33.2071 10.0685 33.5621 11.317 33.5621 12.9816V20.5317H29.9527V13.041C29.9527 12.3277 29.8343 11.9115 29.5385 11.6142C29.2426 11.317 28.8284 11.1981 28.2959 11.1981C27.9409 11.1981 27.645 11.2576 27.3491 11.3764C27.0533 11.4954 26.8166 11.6737 26.6391 11.9115V20.5912H22.9704V8.52282H26.4024V8.4634ZM20.7219 6.2043H16.9941V3.17231H20.7219V6.2043ZM20.7219 20.5912H16.9941V8.52282H20.7219V20.5912ZM8.82844 20.5912V11.0792H7.11245V8.4634H8.82844V7.21494C8.82844 5.84759 9.24262 4.77749 10.0118 4.00465C10.8402 3.23181 12.0829 3.05343 12.9704 3.05343C13.2663 3.05343 15.3373 3.05343 15.3373 3.05343V6.08538C15.3373 6.08538 14.213 6.08538 13.9763 6.08538C13.503 6.08538 13.1479 6.2043 12.9113 6.44209C12.6746 6.67989 12.5562 7.0366 12.5562 7.51219V8.40395H14.8639V11.0197H12.5562V20.4723H8.82844V20.5912ZM1.72783 4.18299C1.72783 0.55653 3.62131 0.259277 6.81659 0.259277V3.11289C5.33729 3.11289 4.74557 3.35069 4.74557 4.24245V8.93899C4.74557 10.0091 4.80475 11.1386 3.91717 11.852C4.80475 12.5654 4.74557 13.6355 4.74557 14.7651V19.4616C4.74557 20.4129 5.33729 20.5912 6.81659 20.5912V23.4448C3.62131 23.4448 1.72783 23.1476 1.72783 19.5211V14.7651C1.72783 13.9923 1.72783 13.16 0.248535 13.16V11.9115V10.6631C1.72783 10.6631 1.72783 9.77129 1.72783 9.05791V4.18299Z" fill="#FFB577"/>
</svg>
